<?xml version="1.0" encoding="utf-8"?>
<!-- Generator: Adobe Illustrator 16.0.4, SVG Export Plug-In . SVG Version: 6.00 Build 0)  -->
<!DOCTYPE svg PUBLIC "-//W3C//DTD SVG 1.1//EN" "http://www.w3.org/Graphics/SVG/1.1/DTD/svg11.dtd">
<svg version="1.1" id="Layer_1" xmlns="http://www.w3.org/2000/svg" xmlns:xlink="http://www.w3.org/1999/xlink" x="0px" y="0px"
	 width="119.6px" height="17.565px" viewBox="0 0 119.6 17.565" enable-background="new 0 0 119.6 17.565" xml:space="preserve">
<g>
	<g>
		<path fill="#FFFFFF" d="M17.862,5.823c0,0.022-0.003,0.046-0.008,0.065c-0.008,0.021-0.015,0.041-0.025,0.061l-2.747,4.659
			c-0.05,0.09-0.141,0.13-0.23,0.1c-0.086-0.03-0.145-0.122-0.145-0.226V7.297L11.5,12.714c-0.035,0.065-0.099,0.108-0.169,0.108
			H8.529c-0.109,0-0.197-0.101-0.197-0.22L8.314,9.02l-5.009,8.444c-0.038,0.063-0.102,0.102-0.167,0.102H0.196
			c-0.073,0-0.139-0.043-0.175-0.111c-0.033-0.071-0.027-0.157,0.007-0.226l8.15-13.671c0.036-0.062,0.099-0.104,0.165-0.104h2.89
			c0.109,0,0.195,0.099,0.195,0.221l0.015,5.343l3.16-5.455c0.033-0.065,0.098-0.108,0.167-0.108h2.898
			c0.109,0,0.195,0.099,0.195,0.221L17.862,5.823z"/>
	</g>
</g>
<g>
	<path fill="#408D52" d="M92.582,3.509c-0.032-0.039-0.08-0.062-0.131-0.062H90.36c-0.08,0-0.149,0.057-0.165,0.135L88.701,11.3
		l-1.774-4.709c-0.025-0.063-0.087-0.104-0.155-0.104h-1.576c-0.069,0-0.13,0.041-0.155,0.105l-1.786,4.666l-1.506-7.697
		c-0.015-0.079-0.084-0.136-0.164-0.136h-2.097c-0.05,0-0.099,0.023-0.13,0.062c-0.032,0.039-0.044,0.092-0.033,0.141l2.531,11.504
		c0.017,0.076,0.084,0.131,0.163,0.131h1.988c0.068,0,0.13-0.041,0.155-0.104l1.826-4.87l1.824,4.87
		c0.026,0.063,0.087,0.104,0.155,0.104h1.988c0.079,0,0.146-0.055,0.163-0.132l2.497-11.481C92.625,3.6,92.613,3.548,92.582,3.509z"
		/>
	<path fill="#FFFFFF" d="M48.454,6.443c-1.499,0-2.317,0.314-3.125,1.203c-0.045,0.05-0.043,0.128,0.005,0.176l1.338,1.307
		c0.025,0.024,0.061,0.038,0.094,0.035c0.035-0.001,0.068-0.017,0.09-0.043c0.384-0.44,0.708-0.65,1.517-0.65
		c1.035,0,1.438,0.335,1.438,1.196v0.292h-1.857c-2.21,0-2.998,1.324-2.998,2.562c0,0.787,0.259,1.488,0.73,1.977
		c0.524,0.524,1.255,0.779,2.235,0.779c0.843,0,1.396-0.179,1.938-0.644v0.436c0,0.07,0.057,0.127,0.127,0.127h2.048
		c0.07,0,0.126-0.057,0.126-0.127V14.63V9.538C52.161,7.514,50.879,6.443,48.454,6.443z M48.309,13.314
		c-0.495,0-1.083-0.146-1.083-0.842c0-0.717,0.659-0.824,1.051-0.824h1.534v0.324c0,0.508-0.08,0.799-0.267,0.974
		C49.214,13.261,48.896,13.314,48.309,13.314z"/>
	<path fill="#FFFFFF" d="M64.014,10.065l2.936-3.314c0.033-0.037,0.041-0.091,0.021-0.136C66.95,6.569,66.905,6.54,66.855,6.54
		h-2.532c-0.038,0-0.074,0.018-0.098,0.048L61.66,9.745V3.587c0-0.07-0.056-0.127-0.126-0.127h-2.097
		c-0.07,0-0.126,0.057-0.126,0.127v11.482c0,0.07,0.057,0.127,0.126,0.127h2.097c0.07,0,0.126-0.057,0.126-0.127v-2.451l0.74-0.834
		l1.976,3.35c0.022,0.039,0.064,0.062,0.109,0.062h2.597c0.046,0,0.089-0.025,0.111-0.066c0.022-0.04,0.021-0.09-0.004-0.129
		L64.014,10.065z"/>
	<path fill="#FFFFFF" d="M70.612,6.443c-2.336,0-3.788,1.693-3.788,4.417c0,3.663,2.183,4.433,4.013,4.433
		c1.602,0,2.443-0.52,3.283-1.359c0.024-0.023,0.037-0.057,0.037-0.09c0-0.034-0.015-0.066-0.039-0.091l-1.274-1.241
		c-0.049-0.049-0.128-0.048-0.177,0.001c-0.5,0.499-0.917,0.753-1.813,0.753c-1.014,0-1.659-0.616-1.708-1.617h5.127
		c0.07,0,0.127-0.057,0.127-0.127v-0.936C74.4,8.07,72.913,6.443,70.612,6.443z M70.612,8.438c0.598,0,1.056,0.283,1.287,0.794
		c0.107,0.255,0.155,0.446,0.176,0.727h-2.925c0.021-0.28,0.069-0.471,0.175-0.725C69.557,8.722,70.014,8.438,70.612,8.438z"/>
	<path fill="#FFFFFF" d="M78.969,6.55h-1.046V4.734c0-0.07-0.057-0.127-0.127-0.127H75.7c-0.07,0-0.127,0.057-0.127,0.127V6.55
		h-0.76c-0.07,0-0.127,0.057-0.127,0.127v1.546c0,0.07,0.057,0.127,0.127,0.127h0.76v4.316c0,1.26,0.792,2.53,2.562,2.53h1.145
		c0.07,0,0.127-0.057,0.127-0.127v-1.774c0-0.069-0.057-0.126-0.127-0.126h-0.758c-0.409,0-0.599-0.2-0.599-0.632V8.35h1.357
		c0.07,0,0.127-0.057,0.127-0.127l-0.312-1.546C79.096,6.606,79.04,6.55,78.969,6.55z"/>
	<path fill="#408D52" d="M95.463,6.443c-1.5,0-2.317,0.314-3.126,1.203c-0.045,0.05-0.043,0.128,0.006,0.176l1.338,1.307
		c0.024,0.024,0.061,0.038,0.093,0.035c0.035-0.001,0.068-0.017,0.091-0.043c0.383-0.44,0.708-0.65,1.517-0.65
		c1.034,0,1.438,0.335,1.438,1.196v0.292h-1.857c-2.21,0-2.998,1.324-2.998,2.562c0,0.787,0.259,1.488,0.731,1.977
		c0.524,0.524,1.255,0.779,2.234,0.779c0.843,0,1.396-0.179,1.938-0.644v0.436c0,0.07,0.057,0.127,0.126,0.127h2.048
		c0.07,0,0.127-0.057,0.127-0.127V9.538C99.17,7.514,97.888,6.443,95.463,6.443z M95.318,13.314c-0.495,0-1.083-0.146-1.083-0.842
		c0-0.717,0.658-0.824,1.051-0.824h1.535v0.324c0,0.508-0.08,0.799-0.268,0.974C96.223,13.261,95.906,13.314,95.318,13.314z"/>
	<path fill="#408D52" d="M104.318,6.528h-1.357V4.734c0-0.07-0.057-0.127-0.127-0.127h-2.097c-0.069,0-0.126,0.057-0.126,0.127
		v1.794h-0.76c-0.07,0-0.126,0.057-0.126,0.127v1.567c0,0.07,0.056,0.127,0.126,0.127h0.76v4.316c0,1.26,0.792,2.53,2.562,2.53
		h1.145c0.07,0,0.127-0.057,0.127-0.127v-1.774c0-0.069-0.057-0.126-0.127-0.126h-0.758c-0.409,0-0.599-0.2-0.599-0.632V8.35h1.357
		c0.07,0,0.127-0.057,0.127-0.127V6.655C104.445,6.585,104.388,6.528,104.318,6.528z"/>
	<path fill="#408D52" d="M110.225,12.528c-0.024-0.024-0.053-0.033-0.092-0.037c-0.034,0.001-0.066,0.016-0.09,0.041
		c-0.421,0.452-0.763,0.62-1.262,0.62c-0.464,0-0.812-0.159-1.095-0.501c-0.304-0.38-0.44-0.933-0.44-1.791
		c0-0.848,0.136-1.396,0.439-1.774c0.283-0.343,0.631-0.502,1.096-0.502c0.499,0,0.84,0.168,1.262,0.621
		c0.023,0.025,0.057,0.039,0.09,0.04c0.037,0.002,0.068-0.013,0.092-0.037l1.419-1.419c0.049-0.049,0.049-0.127,0.002-0.178
		c-0.764-0.797-1.674-1.168-2.865-1.168c-3.604,0-3.884,3.381-3.884,4.417c0,4.112,2.973,4.433,3.884,4.433
		c1.18,0,2.091-0.376,2.865-1.184c0.048-0.05,0.047-0.13-0.002-0.178L110.225,12.528z"/>
	<path fill="#408D52" d="M116.667,6.443c-0.703,0-1.35,0.243-1.889,0.705V3.587c0-0.07-0.057-0.127-0.126-0.127h-2.097
		c-0.069,0-0.126,0.057-0.126,0.127v11.482c0,0.07,0.057,0.127,0.126,0.127h2.097c0.07,0,0.126-0.057,0.126-0.127V9.941
		c0-1.26,0.94-1.357,1.228-1.357c0.292,0,1.245,0.098,1.245,1.357v5.128c0,0.07,0.056,0.127,0.126,0.127h2.097
		c0.07,0,0.127-0.057,0.127-0.127V9.635C119.6,7.666,118.476,6.443,116.667,6.443z"/>
	<path fill="#FFFFFF" d="M56.213,8.615c0.439,0,0.657,0.212,0.908,0.468c0.023,0.023,0.056,0.037,0.089,0.037h0
		c0.034-0.001,0.066-0.014,0.089-0.038l1.403-1.713c0.049-0.049,0.052-0.133,0-0.178c-0.667-0.589-1.11-0.716-1.809-0.716
		c-0.697,0-1.064,0.404-1.064,0.404c-0.204,0.161-0.386,0.361-0.544,0.599l0.005-0.768c-0.007-0.086-0.078-0.15-0.163-0.15h-1.916
		c-0.09,0-0.164,0.073-0.164,0.163v8.345c0,0.091,0.074,0.164,0.164,0.164h2.01c0.09,0,0.164-0.073,0.164-0.164c0,0,0-4.937,0-5.514
		S55.787,8.615,56.213,8.615z"/>
	<path fill="#FFFFFF" d="M44.061,3.584c-0.007-0.086-0.078-0.151-0.164-0.151l-2.018-0.001c-0.038,0-0.074,0.017-0.099,0.046
		L38.846,8.46l-2.935-4.982c-0.023-0.029-0.06-0.046-0.098-0.046l-2.019,0.001c-0.085,0-0.157,0.065-0.164,0.151l-0.003,11.514
		c0,0.07,0.056,0.126,0.127,0.126h2.055c0.068,0,0.126-0.056,0.126-0.126V8.156v0.006l2.05,3.472
		c0.024,0.029,0.061,0.047,0.099,0.047h1.521c0.038,0,0.074-0.018,0.098-0.047l2.05-3.472l0-0.006l0,6.941
		c0,0.07,0.059,0.126,0.127,0.126h2.055c0.071,0,0.127-0.056,0.127-0.126L44.061,3.584z"/>
</g>
<g>
	<g>
		<path fill="#FFFFFF" d="M17.854,5.871c0,0.022-0.002,0.046-0.007,0.065c-0.008,0.021-0.016,0.041-0.025,0.061l-2.734,4.639
			c-0.05,0.088-0.141,0.128-0.229,0.098c-0.086-0.03-0.144-0.121-0.144-0.225v-3.17l-3.193,5.392
			c-0.035,0.065-0.098,0.108-0.169,0.108H8.562c-0.108,0-0.197-0.101-0.197-0.219L8.348,9.054L3.362,17.46
			c-0.038,0.062-0.101,0.101-0.166,0.101H0.268c-0.073,0-0.139-0.043-0.174-0.111c-0.033-0.07-0.028-0.156,0.007-0.224L8.214,3.616
			C8.25,3.553,8.312,3.513,8.378,3.513h2.877c0.108,0,0.194,0.099,0.194,0.22l0.015,5.318l3.145-5.43
			c0.032-0.065,0.098-0.108,0.167-0.108h2.885c0.109,0,0.194,0.099,0.194,0.22L17.854,5.871z"/>
	</g>
	<path fill="#408D52" d="M32.729,2.382l-1.221-2.314c-0.017-0.031-0.046-0.054-0.08-0.063c-0.034-0.009-0.071-0.003-0.101,0.016
		l-3.61,2.314c-0.047,0.03-0.069,0.089-0.053,0.143c0.016,0.054,0.065,0.091,0.121,0.091h0.667l-4.246,7.161l-0.018-3.565
		c0-0.119-0.088-0.22-0.197-0.22h-2.789c-0.071,0-0.134,0.043-0.169,0.108l-3.193,5.392V8.176c0-0.104-0.058-0.194-0.144-0.225
		c-0.088-0.029-0.179,0.011-0.229,0.099l-2.734,4.639c-0.01,0.02-0.018,0.04-0.025,0.061c-0.005,0.021-0.008,0.043-0.008,0.065
		l-0.002,2.235c0,0.121,0.086,0.22,0.194,0.22h2.885c0.068,0,0.133-0.043,0.167-0.108l3.145-5.43l0.016,5.318
		c0,0.121,0.085,0.22,0.194,0.22h2.878c0.065,0,0.128-0.04,0.164-0.104l7.51-12.599h0.767c0.044,0,0.085-0.023,0.108-0.061
		C32.749,2.468,32.75,2.421,32.729,2.382z"/>
</g>
</svg>
